<?xml version="1.0" encoding="UTF-8" standalone="no"?>
<!DOCTYPE svg PUBLIC "-//W3C//DTD SVG 1.1//EN" "http://www.w3.org/Graphics/SVG/1.1/DTD/svg11.dtd">
<svg width="100%" height="100%" viewBox="0 0 96 96" version="1.1" xmlns="http://www.w3.org/2000/svg" xmlns:xlink="http://www.w3.org/1999/xlink" xml:space="preserve" xmlns:serif="http://www.serif.com/" style="fill-rule:evenodd;clip-rule:evenodd;stroke-linejoin:round;stroke-miterlimit:2;">
    <g transform="matrix(0.1,0,0,-0.1,-1088,332.476)">
        <g>
            <path d="M11323,3258C11319,3251 11317,3235 11319,3222C11326,3162 11218,3010 11138,2969C11114,2957 11100,2943 11100,2930C11100,2894 11141,2801 11191,2725C11245,2642 11247,2635 11225,2626C11208,2620 11205,2584 11220,2575C11235,2566 11213,2531 11184,2520C11171,2515 11160,2504 11160,2496C11160,2488 11147,2472 11130,2460C11114,2448 11100,2436 11100,2432C11100,2428 11216,2426 11357,2428L11615,2431L11582,2458C11564,2473 11550,2491 11550,2498C11550,2505 11539,2515 11526,2520C11497,2531 11475,2566 11490,2575C11505,2584 11502,2620 11485,2626C11462,2635 11466,2646 11519,2726C11568,2799 11610,2893 11610,2930C11610,2943 11596,2957 11573,2969C11488,3013 11399,3134 11395,3211C11393,3231 11389,3253 11386,3259C11376,3274 11333,3273 11323,3258ZM11373,2956C11370,2918 11370,2918 11408,2921C11464,2924 11470,2922 11470,2900C11470,2878 11464,2876 11406,2880L11367,2882L11373,2802C11378,2721 11373,2706 11343,2718C11334,2721 11330,2747 11330,2802L11330,2883L11298,2878C11256,2871 11240,2877 11240,2900C11240,2923 11256,2929 11298,2922C11329,2918 11330,2919 11330,2952C11330,2991 11337,3002 11360,2997C11371,2995 11374,2984 11373,2956ZM11398,2573C11377,2571 11341,2571 11318,2573C11294,2575 11311,2577 11355,2577C11399,2577 11418,2575 11398,2573ZM11418,2503C11380,2501 11320,2501 11283,2503C11245,2505 11276,2506 11350,2506C11424,2506 11455,2505 11418,2503Z" style="fill-rule:nonzero;"/>
        </g>
    </g>
</svg>
