<?xml version="1.0" encoding="UTF-8" standalone="no"?>
<!DOCTYPE svg PUBLIC "-//W3C//DTD SVG 1.1//EN" "http://www.w3.org/Graphics/SVG/1.1/DTD/svg11.dtd">
<svg width="100%" height="100%" viewBox="0 0 112 112" version="1.1" xmlns="http://www.w3.org/2000/svg" xmlns:xlink="http://www.w3.org/1999/xlink" xml:space="preserve" xmlns:serif="http://www.serif.com/" style="fill-rule:evenodd;clip-rule:evenodd;stroke-linejoin:round;stroke-miterlimit:2;">
    <g transform="matrix(1,0,0,1,-346,-102.091)">
        <g transform="matrix(0.1,0,0,-0.1,1.54396,441.067)">
            <path d="M4183,3187C4153,3163 4025,3120 3983,3120C3963,3120 3942,3112 3930,3100C3896,3066 3863,3058 3834,3076C3811,3091 3808,3091 3790,3075C3780,3066 3770,3048 3768,3036C3766,3022 3754,3011 3731,3004C3695,2992 3641,2929 3640,2897C3640,2888 3631,2872 3620,2863C3602,2847 3600,2833 3600,2717C3600,2597 3601,2588 3620,2583C3631,2580 3640,2571 3640,2563C3640,2512 3701,2460 3760,2460C3816,2460 3880,2516 3880,2564C3880,2577 3893,2580 3949,2580L4018,2580L4030,2545C4046,2496 4093,2460 4139,2460C4189,2460 4242,2496 4256,2540C4262,2559 4277,2577 4289,2581C4309,2589 4310,2596 4310,2719C4310,2790 4306,2851 4301,2854C4296,2858 4290,2855 4288,2849C4285,2839 4125,2850 4053,2866C4034,2870 4030,2866 4030,2845C4030,2809 3988,2770 3950,2770C3915,2770 3860,2816 3860,2845C3860,2856 3854,2860 3843,2856C3806,2846 3619,2828 3613,2834C3600,2846 3621,2852 3732,2866C3882,2884 3876,2885 3886,2848C3908,2772 3994,2774 4006,2850C4012,2883 4016,2890 4036,2890L4059,2890L4023,2973C3980,3073 3975,3090 3988,3090C3993,3090 4018,3044 4043,2988L4088,2885L4186,2873C4297,2860 4348,2870 4364,2906C4369,2918 4386,2936 4402,2946C4417,2956 4433,2973 4436,2982C4442,3002 4345,3200 4327,3201C4255,3208 4204,3203 4183,3187ZM4299,3064C4352,2943 4356,2930 4341,2930C4333,2930 4230,3153 4230,3171C4230,3203 4255,3164 4299,3064ZM3835,3061C3842,3048 3803,3027 3789,3035C3782,3040 3783,3046 3791,3056C3804,3072 3826,3074 3835,3061ZM3788,2935C3813,2883 3814,2880 3800,2880C3790,2880 3750,2951 3750,2970C3750,2993 3767,2977 3788,2935ZM4200,2740C4200,2734 4107,2730 3940,2730C3773,2730 3680,2734 3680,2740C3680,2746 3773,2750 3940,2750C4107,2750 4200,2746 4200,2740ZM3841,2661C3857,2645 3870,2622 3870,2611C3870,2581 3857,2586 3840,2623C3803,2701 3670,2671 3670,2585C3670,2577 3666,2570 3660,2570C3646,2570 3648,2610 3664,2639C3682,2672 3717,2689 3768,2690C3803,2690 3817,2684 3841,2661ZM4060,2680C4060,2674 4017,2670 3950,2670C3883,2670 3840,2674 3840,2680C3840,2686 3883,2690 3950,2690C4017,2690 4060,2686 4060,2680ZM4221,2661C4237,2645 4250,2622 4250,2611C4250,2581 4237,2586 4220,2623C4183,2701 4050,2671 4050,2585C4050,2577 4046,2570 4040,2570C4026,2570 4028,2610 4044,2639C4062,2672 4097,2689 4148,2690C4183,2690 4197,2684 4221,2661ZM3802,2623C3840,2589 3813,2520 3762,2520C3708,2520 3681,2582 3717,2622C3737,2644 3778,2645 3802,2623ZM4190,2620C4214,2596 4215,2572 4194,2542C4163,2497 4080,2524 4080,2580C4080,2633 4151,2659 4190,2620Z" style="fill-rule:nonzero;"/>
        </g>
        <g transform="matrix(0.1,0,0,-0.1,1.54396,441.067)">
            <path d="M3730,2610C3706,2586 3706,2580 3723,2556C3732,2544 3746,2539 3765,2542C3790,2544 3796,2550 3798,2575C3801,2594 3796,2608 3784,2617C3760,2634 3754,2634 3730,2610Z" style="fill-rule:nonzero;"/>
        </g>
        <g transform="matrix(0.1,0,0,-0.1,1.54396,441.067)">
            <path d="M4128,2623C4105,2617 4094,2574 4110,2555C4136,2523 4196,2547 4188,2586C4184,2607 4150,2628 4128,2623Z" style="fill-rule:nonzero;"/>
        </g>
    </g>
</svg>
