<?xml version="1.0" encoding="UTF-8" standalone="no"?>
<!DOCTYPE svg PUBLIC "-//W3C//DTD SVG 1.1//EN" "http://www.w3.org/Graphics/SVG/1.1/DTD/svg11.dtd">
<svg width="100%" height="100%" viewBox="0 0 112 112" version="1.1" xmlns="http://www.w3.org/2000/svg" xmlns:xlink="http://www.w3.org/1999/xlink" xml:space="preserve" xmlns:serif="http://www.serif.com/" style="fill-rule:evenodd;clip-rule:evenodd;stroke-linejoin:round;stroke-miterlimit:2;">
    <g transform="matrix(0.1,0,0,-0.1,-233.897,343.402)">
        <g>
            <path d="M2852,3328C2839,3321 2826,3304 2823,3289C2820,3274 2808,3258 2794,3251C2781,3245 2765,3229 2758,3215C2749,3194 2740,3190 2703,3190C2666,3190 2660,3187 2660,3169C2660,3157 2674,3123 2691,3094L2721,3040L2690,3040C2673,3040 2657,3034 2654,3027C2651,3019 2665,2978 2686,2934C2801,2684 2808,2656 2764,2621C2749,2609 2733,2600 2728,2600C2699,2600 2650,2565 2635,2533C2617,2496 2622,2432 2643,2418C2660,2407 3132,2408 3149,2419C3156,2424 3164,2447 3167,2471C3173,2534 3146,2573 3081,2595C3029,2612 3000,2640 3000,2673C3000,2693 3066,2851 3112,2943C3149,3017 3146,3034 3097,3040L3060,3045L3105,3100C3164,3172 3161,3184 3084,3188C3030,3191 3021,3194 3012,3216C3005,3229 2989,3245 2975,3252C2961,3258 2950,3271 2950,3281C2950,3299 2905,3340 2886,3339C2880,3339 2865,3334 2852,3328ZM3033,3127C3031,3123 3028,3109 3024,3095C3018,3069 2991,3060 2989,3083C2989,3093 2987,3093 2983,3083C2981,3076 2972,3070 2964,3070C2956,3070 2950,3076 2949,3083C2949,3093 2947,3093 2943,3083C2935,3063 2910,3068 2910,3089C2910,3132 2919,3138 2978,3137C3009,3136 3034,3132 3033,3127ZM2950,2640C2950,2635 2925,2630 2895,2630C2865,2630 2840,2635 2840,2640C2840,2646 2865,2650 2895,2650C2925,2650 2950,2646 2950,2640ZM3105,2490C3105,2477 3074,2475 2898,2472C2694,2470 2690,2470 2690,2490C2690,2510 2694,2510 2898,2508C3074,2505 3105,2503 3105,2490Z" style="fill-rule:nonzero;"/>
        </g>
    </g>
</svg>
