<?xml version="1.0" encoding="UTF-8" standalone="no"?>
<!DOCTYPE svg PUBLIC "-//W3C//DTD SVG 1.1//EN" "http://www.w3.org/Graphics/SVG/1.1/DTD/svg11.dtd">
<svg width="100%" height="100%" viewBox="0 0 112 112" version="1.1" xmlns="http://www.w3.org/2000/svg" xmlns:xlink="http://www.w3.org/1999/xlink" xml:space="preserve" xmlns:serif="http://www.serif.com/" style="fill-rule:evenodd;clip-rule:evenodd;stroke-linejoin:round;stroke-miterlimit:2;">
    <g transform="matrix(1,0,0,1,1.5,-94.596)">
        <g transform="matrix(0.1,0,0,-0.1,0,441)">
            <path d="M293,3344C284,3340 280,3316 280,3274C280,3213 282,3208 315,3179C350,3148 350,3147 350,3064C350,2996 353,2980 365,2980C376,2980 380,2992 380,3025L380,3070L520,3070L520,3025C520,2987 523,2980 540,2980C557,2980 560,2987 560,3025L560,3070L700,3070L700,3025C700,2984 702,2980 725,2980C750,2980 750,2981 750,3064C750,3147 750,3148 785,3179C818,3208 820,3213 820,3275C820,3335 818,3340 796,3346C783,3349 758,3350 739,3348C713,3346 704,3340 702,3323C699,3304 692,3300 660,3300C628,3300 621,3304 618,3323C615,3343 610,3345 550,3345C490,3345 485,3343 482,3323C479,3304 472,3300 440,3300C408,3300 401,3304 398,3323C395,3342 388,3345 350,3347C325,3348 299,3347 293,3344ZM810,3220C810,3214 717,3210 550,3210C383,3210 290,3214 290,3220C290,3226 383,3230 550,3230C717,3230 810,3226 810,3220ZM750,3160C750,3154 677,3150 550,3150C423,3150 350,3154 350,3160C350,3166 423,3170 550,3170C677,3170 750,3166 750,3160Z" style="fill-rule:nonzero;"/>
        </g>
        <g transform="matrix(0.1,0,0,-0.1,0,441)">
            <path d="M220,3060L220,2912L285,2869L349,2825L350,2764C350,2715 345,2696 325,2666C310,2645 300,2615 300,2595C300,2564 297,2561 268,2558C239,2555 235,2551 232,2522C226,2459 222,2460 550,2460C878,2460 874,2459 868,2522C865,2551 861,2555 833,2558C803,2561 800,2564 800,2595C800,2615 790,2645 775,2666C754,2696 750,2715 750,2770L750,2837L798,2870C865,2917 870,2926 870,2997L870,3060L760,3060L760,3015C760,2970 760,2970 725,2970C690,2970 690,2970 690,3015L690,3060L570,3060L570,3015C570,2972 569,2970 540,2970C511,2970 510,2972 510,3015L510,3060L390,3060L390,3015C390,2970 390,2970 355,2970C320,2970 320,2970 320,3015L320,3060L220,3060ZM693,2933C610,2931 470,2931 383,2933C296,2934 364,2936 535,2936C706,2936 777,2934 693,2933ZM745,2690C741,2684 665,2680 550,2680C435,2680 359,2684 355,2690C351,2697 418,2700 550,2700C682,2700 749,2697 745,2690ZM770,2650C770,2644 690,2640 550,2640C410,2640 330,2644 330,2650C330,2656 410,2660 550,2660C690,2660 770,2656 770,2650ZM790,2560C790,2554 703,2550 550,2550C397,2550 310,2554 310,2560C310,2566 397,2570 550,2570C703,2570 790,2566 790,2560Z" style="fill-rule:nonzero;"/>
        </g>
    </g>
</svg>
