<?xml version="1.0" encoding="UTF-8" standalone="no"?>
<!DOCTYPE svg PUBLIC "-//W3C//DTD SVG 1.1//EN" "http://www.w3.org/Graphics/SVG/1.1/DTD/svg11.dtd">
<svg width="100%" height="100%" viewBox="0 0 112 112" version="1.1" xmlns="http://www.w3.org/2000/svg" xmlns:xlink="http://www.w3.org/1999/xlink" xml:space="preserve" xmlns:serif="http://www.serif.com/" style="fill-rule:evenodd;clip-rule:evenodd;stroke-linejoin:round;stroke-miterlimit:2;">
    <g transform="matrix(0.1,0,0,-0.1,-118.8,341.429)">
        <g>
            <path d="M1678,3176C1528,3123 1446,3045 1385,2900L1348,2811L1370,2781C1383,2762 1400,2750 1414,2750C1430,2750 1441,2740 1453,2712C1470,2674 1529,2609 1517,2641C1514,2650 1508,2679 1504,2705L1497,2753L1568,2747C1661,2739 1676,2731 1683,2678C1690,2627 1686,2621 1662,2643C1635,2668 1633,2665 1640,2610C1650,2528 1692,2498 1756,2525C1802,2544 1810,2556 1803,2591C1797,2623 1833,2710 1852,2710C1892,2709 1984,2679 2001,2661C2047,2612 2084,2649 2119,2780C2143,2866 2147,3003 2129,3076C2117,3123 2073,3170 2040,3170C2029,3170 2016,3178 2011,3188C2001,3204 2001,3203 2000,3185C2000,3170 1998,3168 1991,3179C1982,3193 1921,3191 1875,3175C1862,3171 1863,3174 1880,3184C1904,3199 1901,3199 1825,3199C1766,3200 1727,3193 1678,3176ZM1834,3156C1824,3148 1813,3144 1810,3146C1805,3152 1831,3170 1844,3170C1850,3170 1845,3164 1834,3156ZM1975,3118C1952,3075 1911,3020 1900,3020C1896,3020 1904,3033 1919,3049C1934,3065 1954,3096 1965,3119C1975,3142 1985,3158 1987,3156C1990,3154 1984,3137 1975,3118ZM1629,3009C1649,2952 1647,2950 1570,2951C1494,2953 1484,2962 1523,2997C1579,3048 1614,3052 1629,3009Z" style="fill-rule:nonzero;"/>
        </g>
    </g>
</svg>
