<?xml version="1.0" encoding="UTF-8" standalone="no"?>
<!DOCTYPE svg PUBLIC "-//W3C//DTD SVG 1.1//EN" "http://www.w3.org/Graphics/SVG/1.1/DTD/svg11.dtd">
<svg width="100%" height="100%" viewBox="0 0 96 96" version="1.1" xmlns="http://www.w3.org/2000/svg" xmlns:xlink="http://www.w3.org/1999/xlink" xml:space="preserve" xmlns:serif="http://www.serif.com/" style="fill-rule:evenodd;clip-rule:evenodd;stroke-linejoin:round;stroke-miterlimit:2;">
    <g transform="matrix(0.1,0,0,-0.1,-1188.5,333.411)">
        <g>
            <path d="M12329,3249C12315,3235 12310,3221 12314,3205C12318,3190 12315,3180 12305,3176C12293,3172 12290,3147 12290,3045C12290,2942 12287,2920 12275,2920C12263,2920 12260,2943 12258,3048L12255,3175L12198,3178C12132,3181 12133,3184 12156,3095C12177,3011 12186,2775 12171,2714C12154,2647 12081,2500 12064,2500C12055,2500 12050,2489 12050,2470L12050,2440L12680,2440L12680,2470C12680,2489 12675,2500 12666,2500C12649,2500 12576,2647 12559,2714C12544,2775 12553,3011 12574,3095C12597,3184 12598,3181 12533,3178L12475,3175L12472,3048C12470,2943 12467,2920 12455,2920C12443,2920 12440,2942 12440,3045C12440,3147 12437,3172 12425,3176C12416,3180 12410,3195 12410,3216C12410,3239 12404,3253 12391,3260C12363,3274 12353,3273 12329,3249ZM12393,2807C12396,2800 12395,2781 12393,2765C12387,2737 12388,2737 12425,2743C12467,2750 12492,2737 12483,2714C12480,2705 12463,2700 12433,2700L12388,2700L12391,2623C12395,2546 12395,2545 12370,2545C12345,2545 12345,2546 12349,2623L12352,2700L12307,2700C12262,2700 12244,2714 12259,2739C12264,2747 12280,2749 12310,2744L12353,2737L12346,2772C12343,2791 12343,2809 12347,2813C12358,2825 12388,2821 12393,2807Z" style="fill-rule:nonzero;"/>
        </g>
    </g>
</svg>
