<?xml version="1.0" encoding="UTF-8" standalone="no"?>
<!DOCTYPE svg PUBLIC "-//W3C//DTD SVG 1.1//EN" "http://www.w3.org/Graphics/SVG/1.1/DTD/svg11.dtd">
<svg width="100%" height="100%" viewBox="0 0 112 112" version="1.1" xmlns="http://www.w3.org/2000/svg" xmlns:xlink="http://www.w3.org/1999/xlink" xml:space="preserve" xmlns:serif="http://www.serif.com/" style="fill-rule:evenodd;clip-rule:evenodd;stroke-linejoin:round;stroke-miterlimit:2;">
    <g transform="matrix(1,0,0,1,-1419.21,-100.089)">
        <g transform="matrix(0.1,0,0,-0.1,0,441)">
            <path d="M14707,3278C14691,3272 14677,3258 14674,3244C14670,3229 14661,3220 14648,3220C14637,3220 14615,3207 14600,3190C14585,3174 14567,3160 14561,3160C14547,3160 14510,3123 14510,3110C14510,3104 14595,3100 14745,3100C14895,3100 14980,3104 14980,3110C14980,3126 14941,3160 14922,3160C14913,3160 14900,3170 14895,3183C14889,3195 14871,3209 14853,3214C14833,3220 14819,3232 14816,3245C14811,3266 14772,3291 14747,3289C14740,3289 14723,3284 14707,3278ZM14788,3223C14790,3214 14778,3210 14746,3210C14703,3210 14683,3220 14697,3234C14709,3245 14783,3236 14788,3223ZM14878,3163C14881,3153 14851,3150 14751,3150C14631,3150 14608,3154 14627,3174C14640,3187 14873,3176 14878,3163Z" style="fill-rule:nonzero;"/>
        </g>
        <g transform="matrix(0.1,0,0,-0.1,0,441)">
            <path d="M15001,3093C15000,3083 14934,3080 14705,3080L14410,3080L14394,3055C14365,3010 14392,2950 14441,2950C14468,2950 14470,2947 14470,2914C14470,2891 14479,2867 14496,2844C14521,2812 14550,2799 14550,2820C14550,2826 14621,2830 14743,2830C14875,2830 14940,2834 14947,2841C14956,2850 14957,2848 14953,2831C14945,2799 14974,2804 14999,2839C15012,2857 15020,2884 15020,2909C15020,2948 15022,2950 15049,2950C15095,2950 15109,2959 15116,2996C15126,3048 15100,3080 15051,3080C15029,3080 15009,3086 15007,3093C15003,3103 15001,3103 15001,3093ZM14688,3040C14703,3014 14711,3010 14748,3010C14784,3010 14792,3014 14799,3034C14811,3063 14828,3070 14896,3070C14946,3070 14952,3068 14968,3040C14977,3024 14994,3006 15005,3001C15024,2992 15024,2991 15003,2991C14990,2990 14980,2986 14980,2981C14980,2976 14969,2969 14955,2966C14941,2962 14930,2953 14930,2945C14930,2933 14915,2930 14859,2930C14797,2930 14788,2932 14783,2950C14779,2965 14769,2970 14745,2970C14721,2970 14711,2965 14707,2950C14703,2932 14693,2930 14632,2930C14571,2930 14562,2932 14557,2950C14554,2962 14543,2970 14531,2970C14519,2970 14510,2975 14510,2980C14510,2986 14500,2990 14488,2990C14466,2991 14467,2992 14493,3006C14508,3014 14520,3027 14520,3035C14520,3058 14551,3069 14613,3070C14667,3070 14672,3068 14688,3040ZM14978,2879C14973,2865 14530,2866 14516,2880C14509,2887 14591,2890 14744,2890C14909,2890 14981,2887 14978,2879Z" style="fill-rule:nonzero;"/>
        </g>
        <g transform="matrix(0.1,0,0,-0.1,0,441)">
            <path d="M14553,3043C14535,3036 14537,2993 14555,2986C14579,2977 14600,2990 14600,3015C14600,3033 14578,3055 14567,3049C14566,3049 14559,3046 14553,3043Z" style="fill-rule:nonzero;"/>
        </g>
        <g transform="matrix(0.1,0,0,-0.1,0,441)">
            <path d="M14624,3015C14624,2979 14627,2976 14654,2986C14686,2998 14668,3050 14631,3050C14627,3050 14624,3034 14624,3015Z" style="fill-rule:nonzero;"/>
        </g>
        <g transform="matrix(0.1,0,0,-0.1,0,441)">
            <path d="M14829,3034C14814,3016 14827,2987 14853,2982C14864,2980 14868,2988 14868,3014C14868,3053 14852,3061 14829,3034Z" style="fill-rule:nonzero;"/>
        </g>
        <g transform="matrix(0.1,0,0,-0.1,0,441)">
            <path d="M14902,3038C14886,3022 14887,3005 14904,2991C14926,2973 14952,2989 14948,3019C14945,3047 14921,3057 14902,3038Z" style="fill-rule:nonzero;"/>
        </g>
        <g transform="matrix(0.1,0,0,-0.1,0,441)">
            <path d="M14526,2723C14516,2680 14506,2637 14504,2628C14499,2611 14515,2610 14744,2610C14879,2610 14990,2612 14990,2614C14990,2617 14981,2659 14969,2709L14948,2800L14544,2800L14526,2723Z" style="fill-rule:nonzero;"/>
        </g>
        <g transform="matrix(0.1,0,0,-0.1,0,441)">
            <path d="M14478,2559C14468,2542 14460,2524 14460,2519C14460,2514 14580,2510 14750,2510L15040,2510L15000,2590L14495,2590L14478,2559Z" style="fill-rule:nonzero;"/>
        </g>
        <g transform="matrix(0.1,0,0,-0.1,0,441)">
            <path d="M14440,2473C14440,2463 14437,2445 14434,2433L14428,2410L15063,2410L15056,2441C15053,2458 15050,2476 15050,2481C15050,2486 14913,2490 14745,2490C14461,2490 14440,2489 14440,2473Z" style="fill-rule:nonzero;"/>
        </g>
    </g>
</svg>
