<?xml version="1.0" encoding="UTF-8" standalone="no"?>
<!DOCTYPE svg PUBLIC "-//W3C//DTD SVG 1.1//EN" "http://www.w3.org/Graphics/SVG/1.1/DTD/svg11.dtd">
<svg width="100%" height="100%" viewBox="0 0 112 112" version="1.1" xmlns="http://www.w3.org/2000/svg" xmlns:xlink="http://www.w3.org/1999/xlink" xml:space="preserve" xmlns:serif="http://www.serif.com/" style="fill-rule:evenodd;clip-rule:evenodd;stroke-linejoin:round;stroke-miterlimit:2;">
    <g transform="matrix(1,0,0,1,-877.5,-99.671)">
        <g transform="matrix(0.1,0,0,-0.1,0,441)">
            <path d="M9307,3190C9276,3153 9261,3152 9230,3185C9217,3199 9198,3210 9187,3210C9169,3210 9168,3205 9173,3161C9182,3089 9172,3085 9060,3121C8950,3155 8940,3156 8940,3132C8940,3116 8988,3078 9092,3009C9097,3006 9084,2967 9061,2924C9002,2807 8998,2794 9010,2749C9021,2708 9043,2690 9084,2690C9098,2690 9112,2686 9115,2680C9127,2660 9152,2671 9199,2718C9243,2761 9375,2870 9384,2870C9392,2870 9372,2793 9356,2761C9346,2743 9312,2699 9279,2664C9221,2602 9211,2583 9207,2525L9205,2495L9437,2492L9668,2490L9675,2555C9683,2626 9675,2763 9658,2850C9634,2975 9555,3078 9465,3102C9418,3115 9408,3137 9451,3133C9473,3131 9473,3131 9455,3139C9444,3144 9425,3149 9413,3149C9397,3150 9386,3160 9376,3185C9358,3228 9340,3229 9307,3190ZM9230,3044C9230,3017 9210,2990 9189,2990C9173,2990 9170,2994 9176,3013C9189,3056 9230,3080 9230,3044ZM9097,2796C9093,2787 9086,2780 9080,2780C9063,2780 9056,2811 9071,2821C9089,2832 9105,2816 9097,2796Z" style="fill-rule:nonzero;"/>
        </g>
        <g transform="matrix(0.1,0,0,-0.1,0,441)">
            <path d="M9510,3110C9559,3084 9614,3024 9643,2965C9687,2878 9701,2804 9707,2643C9710,2559 9717,2490 9721,2490C9735,2490 9731,2707 9716,2790C9698,2887 9666,2970 9626,3023C9595,3065 9508,3130 9486,3130C9480,3129 9491,3121 9510,3110Z" style="fill-rule:nonzero;"/>
        </g>
    </g>
</svg>
