<?xml version="1.0" encoding="UTF-8" standalone="no"?>
<!DOCTYPE svg PUBLIC "-//W3C//DTD SVG 1.1//EN" "http://www.w3.org/Graphics/SVG/1.1/DTD/svg11.dtd">
<svg width="100%" height="100%" viewBox="0 0 96 96" version="1.1" xmlns="http://www.w3.org/2000/svg" xmlns:xlink="http://www.w3.org/1999/xlink" xml:space="preserve" xmlns:serif="http://www.serif.com/" style="fill-rule:evenodd;clip-rule:evenodd;stroke-linejoin:round;stroke-miterlimit:2;">
    <g transform="matrix(1,0,0,1,-1086.96,-8.9506)">
        <g transform="matrix(0.1,0,0,-0.1,0,441)">
            <path d="M11305,4264C11294,4253 11291,4239 11295,4223C11309,4164 11203,4012 11121,3975C11099,3966 11079,3951 11076,3943C11066,3917 11113,3799 11165,3719C11209,3653 11215,3638 11203,3628C11194,3621 11190,3602 11192,3576C11195,3540 11192,3534 11168,3522C11152,3515 11140,3503 11140,3496C11140,3489 11127,3474 11110,3462C11094,3449 11080,3433 11080,3425C11080,3412 11119,3410 11345,3410C11571,3410 11610,3412 11610,3425C11610,3433 11597,3449 11580,3462C11564,3474 11550,3489 11550,3496C11550,3503 11538,3515 11523,3522C11498,3534 11495,3540 11498,3576C11500,3602 11496,3621 11487,3628C11475,3638 11481,3653 11525,3719C11576,3798 11624,3917 11615,3942C11612,3949 11590,3966 11566,3978C11508,4009 11458,4063 11420,4134C11398,4176 11391,4201 11395,4221C11406,4271 11342,4301 11305,4264ZM11360,4207C11360,4132 11459,3991 11542,3949C11563,3938 11580,3925 11580,3920C11580,3894 11532,3796 11484,3723C11454,3679 11430,3637 11430,3632C11430,3626 11440,3614 11452,3606C11470,3593 11471,3590 11457,3590C11434,3590 11435,3564 11460,3529L11481,3501L11358,3497L11235,3494L11373,3493C11449,3492 11512,3490 11513,3488C11514,3487 11521,3475 11528,3463L11540,3440L11152,3440L11163,3465C11170,3479 11180,3490 11187,3490C11203,3490 11250,3552 11250,3573C11250,3583 11242,3590 11233,3590C11219,3590 11220,3593 11238,3606C11250,3614 11260,3626 11260,3632C11260,3637 11236,3679 11206,3723C11158,3796 11110,3894 11110,3920C11110,3925 11127,3938 11148,3949C11229,3991 11330,4131 11330,4203C11330,4222 11333,4240 11336,4243C11349,4255 11360,4238 11360,4207Z" style="fill-rule:nonzero;"/>
        </g>
        <g transform="matrix(0.1,0,0,-0.1,0,441)">
            <path d="M11335,3980C11332,3974 11332,3956 11335,3939L11342,3908L11293,3912C11250,3915 11245,3913 11242,3893C11238,3868 11242,3867 11304,3870L11343,3872L11337,3791C11332,3711 11332,3710 11356,3710C11379,3710 11380,3712 11380,3791L11380,3872L11413,3870C11467,3867 11472,3869 11468,3893C11465,3912 11460,3915 11423,3912L11381,3909L11378,3947C11375,3985 11350,4004 11335,3980Z" style="fill-rule:nonzero;"/>
        </g>
        <g transform="matrix(0.1,0,0,-0.1,0,441)">
            <path d="M11318,3563C11341,3561 11377,3561 11398,3563C11418,3565 11399,3567 11355,3567C11311,3567 11294,3565 11318,3563Z" style="fill-rule:nonzero;"/>
        </g>
    </g>
</svg>
