<?xml version="1.0" encoding="UTF-8" standalone="no"?>
<!DOCTYPE svg PUBLIC "-//W3C//DTD SVG 1.1//EN" "http://www.w3.org/Graphics/SVG/1.1/DTD/svg11.dtd">
<svg width="100%" height="100%" viewBox="0 0 112 112" version="1.1" xmlns="http://www.w3.org/2000/svg" xmlns:xlink="http://www.w3.org/1999/xlink" xml:space="preserve" xmlns:serif="http://www.serif.com/" style="fill-rule:evenodd;clip-rule:evenodd;stroke-linejoin:round;stroke-miterlimit:2;">
    <g transform="matrix(1,0,0,1,-346,2.9088)">
        <g transform="matrix(0.1,0,0,-0.1,1.0884,441.095)">
            <path d="M4183,4237C4153,4213 4025,4170 3983,4170C3963,4170 3942,4162 3930,4150C3896,4116 3863,4108 3834,4126C3811,4141 3808,4141 3790,4125C3780,4116 3770,4098 3768,4086C3766,4072 3754,4061 3731,4054C3695,4042 3641,3979 3640,3947C3640,3938 3631,3922 3620,3913C3602,3897 3600,3883 3600,3767C3600,3647 3601,3638 3620,3633C3631,3630 3640,3621 3640,3613C3640,3562 3701,3510 3760,3510C3816,3510 3880,3566 3880,3614C3880,3627 3893,3630 3949,3630L4018,3630L4030,3595C4046,3546 4093,3510 4139,3510C4189,3510 4242,3546 4256,3590C4262,3609 4277,3627 4289,3631C4309,3639 4310,3646 4310,3769C4310,3856 4306,3901 4299,3906C4292,3910 4301,3917 4321,3924C4340,3930 4359,3944 4364,3956C4369,3968 4386,3986 4402,3996C4417,4006 4433,4023 4436,4032C4442,4052 4345,4250 4327,4251C4255,4258 4204,4253 4183,4237ZM4286,4114C4353,3960 4355,3954 4334,3946C4324,3942 4313,3943 4309,3947C4299,3957 4190,4205 4190,4218C4190,4230 4210,4240 4225,4236C4230,4235 4258,4180 4286,4114ZM4363,4134C4408,4043 4410,4037 4393,4024C4383,4017 4370,4010 4364,4010C4358,4010 4334,4055 4310,4111C4273,4195 4269,4213 4281,4221C4308,4238 4316,4230 4363,4134ZM4231,4072C4258,4009 4280,3955 4280,3950C4280,3935 4237,3926 4180,3929C4099,3932 4096,3935 4068,4003C4053,4037 4035,4082 4026,4102L4010,4139L4088,4164C4130,4178 4169,4188 4173,4187C4178,4186 4203,4134 4231,4072ZM4026,4050C4050,3998 4069,3951 4069,3947C4070,3942 4058,3940 4043,3942C4019,3945 4011,3956 3978,4034C3956,4083 3942,4130 3945,4137C3957,4171 3985,4141 4026,4050ZM3835,4111C3842,4098 3803,4077 3789,4085C3782,4090 3783,4096 3791,4106C3804,4122 3826,4124 3835,4111ZM3966,4018L3998,3942L3970,3958C3943,3974 3939,3974 3907,3957C3887,3946 3858,3940 3836,3942C3803,3945 3797,3950 3780,3987L3761,4030L3833,4065C3873,4084 3911,4099 3919,4097C3927,4096 3948,4061 3966,4018ZM3760,3984C3785,3927 3785,3930 3754,3930C3735,3930 3726,3938 3714,3965C3695,4012 3696,4030 3720,4030C3735,4030 3746,4017 3760,3984ZM3710,3928C3710,3924 3699,3920 3685,3920C3657,3920 3655,3923 3671,3952C3682,3973 3683,3973 3696,3955C3704,3945 3710,3933 3710,3928ZM3968,3938C4002,3904 3962,3848 3920,3870C3885,3889 3900,3950 3940,3950C3949,3950 3961,3945 3968,3938ZM3870,3892C3870,3870 3895,3845 3926,3836C3960,3826 4001,3847 4013,3881C4025,3911 4027,3912 4070,3906C4095,3903 4152,3898 4198,3894L4280,3887L4280,3774C4280,3711 4277,3660 4273,3660C4268,3660 4258,3673 4248,3689C4225,3730 4176,3753 4127,3747C4087,3741 4045,3710 4034,3678C4030,3663 4018,3660 3955,3660C3882,3660 3880,3661 3865,3690L3849,3720L3955,3720C4022,3720 4060,3724 4060,3731C4060,3738 4018,3741 3938,3741C3870,3741 3796,3743 3774,3746C3722,3753 3677,3731 3653,3687L3635,3655L3632,3764C3631,3824 3631,3874 3633,3876C3637,3880 3811,3907 3848,3909C3863,3910 3870,3904 3870,3892ZM3824,3689C3859,3648 3858,3606 3821,3569C3761,3509 3671,3547 3670,3633C3670,3715 3771,3752 3824,3689ZM4205,3695C4224,3677 4230,3660 4230,3630C4230,3549 4145,3511 4083,3564C4044,3597 4045,3663 4084,3697C4121,3728 4173,3728 4205,3695Z" style="fill-rule:nonzero;"/>
        </g>
        <g transform="matrix(0.1,0,0,-0.1,1.0884,441.095)">
            <path d="M3680,3790C3680,3784 3773,3780 3940,3780C4107,3780 4200,3784 4200,3790C4200,3796 4107,3800 3940,3800C3773,3800 3680,3796 3680,3790Z" style="fill-rule:nonzero;"/>
        </g>
        <g transform="matrix(0.1,0,0,-0.1,1.0884,441.095)">
            <path d="M3717,3672C3695,3648 3696,3607 3718,3587C3758,3551 3820,3578 3820,3632C3820,3683 3751,3710 3717,3672ZM3784,3667C3796,3658 3801,3644 3798,3625C3796,3600 3790,3594 3765,3592C3746,3589 3732,3594 3723,3606C3706,3630 3706,3636 3730,3660C3754,3684 3760,3684 3784,3667Z" style="fill-rule:nonzero;"/>
        </g>
        <g transform="matrix(0.1,0,0,-0.1,1.0884,441.095)">
            <path d="M4096,3668C4064,3622 4090,3570 4145,3570C4202,3570 4230,3630 4190,3670C4163,3697 4115,3696 4096,3668ZM4188,3636C4196,3597 4136,3573 4110,3605C4094,3624 4105,3667 4128,3673C4150,3678 4184,3657 4188,3636Z" style="fill-rule:nonzero;"/>
        </g>
    </g>
</svg>
