<?xml version="1.0" encoding="UTF-8" standalone="no"?>
<!DOCTYPE svg PUBLIC "-//W3C//DTD SVG 1.1//EN" "http://www.w3.org/Graphics/SVG/1.1/DTD/svg11.dtd">
<svg width="100%" height="100%" viewBox="0 0 112 112" version="1.1" xmlns="http://www.w3.org/2000/svg" xmlns:xlink="http://www.w3.org/1999/xlink" xml:space="preserve" xmlns:serif="http://www.serif.com/" style="fill-rule:evenodd;clip-rule:evenodd;stroke-linejoin:round;stroke-miterlimit:2;">
    <g transform="matrix(1,0,0,1,-233.719,2.4018)">
        <g transform="matrix(0.1,0,0,-0.1,0,441)">
            <path d="M2852,4328C2839,4321 2826,4304 2823,4289C2820,4274 2808,4258 2794,4251C2781,4245 2765,4229 2758,4215C2749,4194 2740,4190 2703,4190C2666,4190 2660,4187 2660,4169C2660,4157 2674,4123 2691,4094L2721,4040L2690,4040C2672,4040 2657,4034 2654,4025C2650,4017 2678,3944 2714,3864C2751,3783 2784,3704 2787,3689C2795,3646 2769,3615 2710,3595C2644,3573 2617,3534 2623,3471C2626,3447 2634,3424 2641,3419C2649,3414 2764,3410 2896,3410C3168,3410 3166,3409 3164,3484C3163,3542 3138,3576 3083,3594C3057,3603 3028,3617 3018,3627C2984,3658 2994,3695 3104,3934C3125,3978 3139,4019 3136,4026C3133,4033 3115,4040 3095,4042L3060,4045L3105,4100C3164,4172 3161,4184 3084,4188C3030,4191 3021,4194 3012,4216C3005,4229 2989,4245 2975,4252C2961,4258 2950,4271 2950,4281C2950,4299 2905,4340 2886,4339C2880,4339 2865,4334 2852,4328ZM2905,4290C2909,4284 2900,4280 2885,4280C2870,4280 2861,4284 2865,4290C2868,4296 2877,4300 2885,4300C2893,4300 2902,4296 2905,4290ZM2944,4229C2958,4222 2971,4211 2974,4204C2978,4193 2961,4190 2885,4190C2809,4190 2792,4193 2796,4204C2808,4236 2895,4251 2944,4229ZM3101,4150L3025,4060L2887,4063L2750,4065L2724,4108L2699,4150L3101,4150ZM3090,3994C3090,3990 3068,3939 3041,3880C2979,3744 2958,3683 2965,3656C2979,3608 2995,3590 3039,3574C3104,3550 3130,3524 3130,3483L3130,3450L2660,3450L2660,3481C2660,3528 2676,3547 2730,3565C2791,3585 2820,3619 2820,3672C2820,3709 2770,3840 2714,3953L2690,4000L2890,4000C3000,4000 3090,3997 3090,3994Z" style="fill-rule:nonzero;"/>
        </g>
        <g transform="matrix(0.1,0,0,-0.1,0,441)">
            <path d="M2916,4123C2905,4097 2910,4070 2924,4070C2932,4070 2941,4076 2943,4083C2947,4093 2949,4093 2949,4083C2950,4076 2956,4070 2964,4070C2972,4070 2981,4076 2983,4083C2987,4093 2989,4093 2989,4083C2991,4060 3018,4069 3024,4095C3028,4109 3031,4123 3033,4127C3034,4132 3009,4136 2978,4137C2936,4138 2920,4134 2916,4123Z" style="fill-rule:nonzero;"/>
        </g>
        <g transform="matrix(0.1,0,0,-0.1,0,441)">
            <path d="M2840,3640C2840,3635 2865,3630 2895,3630C2925,3630 2950,3635 2950,3640C2950,3646 2925,3650 2895,3650C2865,3650 2840,3646 2840,3640Z" style="fill-rule:nonzero;"/>
        </g>
        <g transform="matrix(0.1,0,0,-0.1,0,441)">
            <path d="M2690,3490C2690,3471 2697,3470 2895,3470C3093,3470 3100,3471 3100,3490C3100,3509 3093,3510 2895,3510C2697,3510 2690,3509 2690,3490Z" style="fill-rule:nonzero;"/>
        </g>
    </g>
</svg>
