<?xml version="1.0" encoding="UTF-8" standalone="no"?>
<!DOCTYPE svg PUBLIC "-//W3C//DTD SVG 1.1//EN" "http://www.w3.org/Graphics/SVG/1.1/DTD/svg11.dtd">
<svg width="100%" height="100%" viewBox="0 0 112 112" version="1.1" xmlns="http://www.w3.org/2000/svg" xmlns:xlink="http://www.w3.org/1999/xlink" xml:space="preserve" xmlns:serif="http://www.serif.com/" style="fill-rule:evenodd;clip-rule:evenodd;stroke-linejoin:round;stroke-miterlimit:2;">
    <g transform="matrix(1,0,0,1,-445.642,3.9053)">
        <g transform="matrix(0.1,0,0,-0.1,0.0421445,441.483)">
            <path d="M4950,4295C4780,4262 4738,4251 4715,4236C4634,4183 4618,3953 4684,3789L4708,3730L4681,3724C4626,3712 4619,3708 4622,3692C4624,3680 4645,3670 4687,3660C4753,3644 4773,3621 4744,3592C4716,3565 4753,3490 4802,3474C4831,3465 4879,3489 4895,3521C4903,3536 4910,3576 4910,3609L4910,3668L4953,3675C4976,3679 5007,3689 5022,3696C5047,3709 5049,3708 5055,3689C5065,3658 5130,3590 5149,3590C5174,3590 5249,3641 5291,3686C5359,3760 5392,3840 5406,3965C5413,4036 5395,4175 5373,4208C5343,4256 5175,4311 5065,4309C5038,4308 4986,4302 4950,4295ZM5205,4255C5238,4246 5282,4229 5305,4217C5354,4190 5368,4147 5369,4020C5370,3875 5332,3773 5249,3695C5182,3632 5156,3622 5129,3646C5105,3668 5070,3732 5070,3755C5070,3776 5033,3774 5025,3752C5020,3734 4981,3710 4960,3710C4954,3710 4950,3721 4950,3735C4950,3773 4929,3810 4899,3826C4861,3845 4833,3844 4826,3822C4817,3793 4763,3747 4747,3753C4739,3756 4722,3785 4709,3817C4689,3867 4686,3893 4685,4005C4685,4111 4688,4141 4703,4167C4722,4202 4765,4230 4802,4230C4815,4231 4859,4239 4900,4250C4993,4273 5126,4275 5205,4255ZM4901,3791C4945,3747 4939,3726 4875,3694C4824,3670 4812,3668 4748,3674C4709,3677 4673,3683 4667,3687C4662,3690 4682,3701 4713,3710C4778,3730 4820,3758 4840,3794C4857,3827 4865,3827 4901,3791ZM4878,3605C4871,3521 4826,3485 4785,3530C4769,3547 4769,3554 4780,3574C4787,3588 4790,3610 4788,3624C4783,3646 4787,3649 4819,3653C4839,3655 4861,3657 4869,3658C4879,3660 4881,3648 4878,3605Z" style="fill-rule:nonzero;"/>
        </g>
        <g transform="matrix(0.1,0,0,-0.1,0.0421445,441.483)">
            <path d="M4867,3982C4845,3958 4844,3894 4865,3886C4892,3876 4922,3917 4918,3958C4915,4001 4893,4011 4867,3982Z" style="fill-rule:nonzero;"/>
        </g>
    </g>
</svg>
