<?xml version="1.0" encoding="UTF-8" standalone="no"?>
<!DOCTYPE svg PUBLIC "-//W3C//DTD SVG 1.1//EN" "http://www.w3.org/Graphics/SVG/1.1/DTD/svg11.dtd">
<svg width="100%" height="100%" viewBox="0 0 112 112" version="1.1" xmlns="http://www.w3.org/2000/svg" xmlns:xlink="http://www.w3.org/1999/xlink" xml:space="preserve" xmlns:serif="http://www.serif.com/" style="fill-rule:evenodd;clip-rule:evenodd;stroke-linejoin:round;stroke-miterlimit:2;">
    <g transform="matrix(0.1,0,0,-0.1,1.4041,446.904)">
        <g>
            <path d="M283,4344C274,4340 270,4315 270,4271C270,4207 272,4202 305,4170C355,4121 351,4111 278,4108L215,4105L212,4040C210,4005 211,3966 214,3954C217,3943 247,3914 280,3891L340,3849L340,3781C340,3725 336,3706 315,3676C300,3655 290,3625 290,3605C290,3574 287,3571 258,3568C229,3565 225,3561 222,3532C216,3469 212,3470 540,3470C868,3470 864,3469 858,3532C855,3561 851,3565 823,3568C793,3571 790,3574 790,3605C790,3625 780,3655 765,3676C744,3706 740,3725 740,3781L740,3849L805,3896L871,3942L868,4024L865,4105L803,4108C729,4111 725,4121 775,4170C808,4202 810,4207 810,4272C810,4335 808,4340 786,4346C773,4349 748,4350 729,4348C703,4346 694,4340 692,4323C689,4304 682,4300 650,4300C618,4300 611,4304 608,4323C605,4343 600,4345 540,4345C480,4345 475,4343 472,4323C469,4304 462,4300 430,4300C398,4300 391,4304 388,4323C385,4342 378,4345 340,4347C315,4348 289,4347 283,4344ZM360,4290C360,4272 367,4270 430,4270C493,4270 500,4272 500,4290C500,4307 507,4310 540,4310C573,4310 580,4307 580,4290C580,4272 587,4270 650,4270C713,4270 720,4272 720,4290C720,4306 727,4310 750,4310C778,4310 780,4308 780,4270L780,4230L300,4230L300,4270C300,4308 302,4310 330,4310C353,4310 360,4306 360,4290ZM750,4202C750,4175 720,4170 540,4170C360,4170 330,4175 330,4202C330,4206 424,4210 540,4210C656,4210 750,4206 750,4202ZM710,4130C710,4113 702,4111 633,4108L555,4105L552,4063C550,4039 545,4020 540,4020C535,4020 530,4039 528,4063L525,4105L448,4108C378,4111 370,4113 370,4130C370,4149 378,4150 540,4150C702,4150 710,4149 710,4130ZM312,4028C315,3985 315,3985 355,3985C395,3985 395,3985 398,4028L401,4070L446,4070C489,4070 490,4069 490,4037C490,3997 505,3980 540,3980C575,3980 590,3997 590,4037C590,4069 591,4070 634,4070L679,4070L682,4028C685,3985 685,3985 725,3985C765,3985 765,3985 768,4028C771,4067 773,4070 801,4070C830,4070 830,4069 830,4015L830,3960L250,3960L250,4015C250,4069 250,4070 279,4070C307,4070 309,4067 312,4028ZM810,3946C810,3944 793,3931 772,3916C734,3890 733,3890 540,3890C347,3890 346,3890 308,3916C287,3931 270,3944 270,3946C270,3948 392,3950 540,3950C689,3950 810,3948 810,3946ZM710,3850L710,3720L370,3720L370,3850L710,3850ZM720,3680C731,3660 728,3660 540,3660C352,3660 349,3660 360,3680C370,3699 381,3700 540,3700C699,3700 710,3699 720,3680ZM755,3625L755,3575L542,3572C359,3570 329,3572 324,3585C320,3593 320,3607 324,3615C329,3628 359,3630 542,3628L755,3625ZM820,3525C820,3512 782,3510 540,3510C298,3510 260,3512 260,3525C260,3538 298,3540 540,3540C782,3540 820,3538 820,3525Z" style="fill-rule:nonzero;"/>
        </g>
    </g>
</svg>
