<?xml version="1.0" encoding="UTF-8" standalone="no"?>
<!DOCTYPE svg PUBLIC "-//W3C//DTD SVG 1.1//EN" "http://www.w3.org/Graphics/SVG/1.1/DTD/svg11.dtd">
<svg width="100%" height="100%" viewBox="0 0 112 112" version="1.1" xmlns="http://www.w3.org/2000/svg" xmlns:xlink="http://www.w3.org/1999/xlink" xml:space="preserve" xmlns:serif="http://www.serif.com/" style="fill-rule:evenodd;clip-rule:evenodd;stroke-linejoin:round;stroke-miterlimit:2;">
    <g transform="matrix(1,0,0,1,-554.5,2.9762)">
        <g transform="matrix(0.1,0,0,-0.1,0,441)">
            <path d="M6125,4286C6120,4283 6089,4279 6057,4275C6012,4270 5994,4262 5975,4242C5953,4218 5940,4214 5865,4209C5792,4205 5774,4200 5738,4174C5674,4129 5655,4097 5655,4037C5656,3930 5684,3897 5713,3970L5728,4010L5788,4010C5839,4010 5853,4006 5886,3979C5934,3941 5941,3923 5942,3840C5943,3739 5902,3667 5814,3614C5786,3597 5808,3579 5864,3573L5910,3567L5904,3534C5896,3493 5904,3492 5970,3525L6019,3550L6046,3515C6060,3496 6077,3480 6083,3480C6089,3480 6109,3494 6127,3512C6159,3543 6160,3543 6175,3524C6183,3514 6190,3499 6190,3493C6190,3469 6221,3480 6238,3510C6260,3549 6268,3548 6286,3505C6304,3460 6322,3461 6343,3506L6360,3541L6386,3511C6421,3469 6440,3471 6440,3515C6440,3534 6443,3550 6446,3550C6456,3550 6495,3527 6501,3517C6505,3512 6515,3510 6523,3513C6559,3527 6554,3817 6515,3965C6492,4053 6441,4158 6407,4186C6332,4249 6173,4305 6125,4286ZM6302,4208C6366,4175 6389,4157 6411,4121C6477,4018 6510,3869 6510,3678L6510,3560L6470,3580C6425,3603 6410,3600 6410,3568C6410,3548 6409,3548 6392,3563C6367,3586 6347,3584 6332,3559L6318,3538L6291,3564C6257,3597 6247,3597 6230,3564L6216,3538L6199,3559C6176,3587 6158,3585 6119,3553L6087,3526L6060,3558C6031,3593 6015,3597 5986,3575C5959,3555 5950,3556 5950,3580C5950,3597 5943,3600 5909,3600L5867,3600L5908,3644C5972,3713 5996,3826 5969,3925C5963,3947 5951,3974 5942,3984C5926,4002 5926,4003 5945,3996C6023,3967 6120,3952 6120,3968C6120,3986 5849,4050 5775,4050C5753,4050 5724,4043 5712,4034C5691,4019 5690,4020 5690,4051C5690,4134 5877,4224 5908,4155C5914,4141 5926,4130 5935,4130C5954,4130 5954,4139 5933,4162C5918,4179 5918,4180 5940,4180C5953,4180 5976,4192 5991,4206C6024,4237 6062,4248 6153,4249C6215,4250 6230,4246 6302,4208Z" style="fill-rule:nonzero;"/>
        </g>
        <g transform="matrix(0.1,0,0,-0.1,0,441)">
            <path d="M6110,4159C6044,4148 6034,4139 6059,4116C6086,4091 6126,4093 6154,4119C6167,4131 6194,4143 6214,4147C6234,4150 6250,4157 6250,4161C6250,4172 6183,4171 6110,4159Z" style="fill-rule:nonzero;"/>
        </g>
    </g>
</svg>
