<?xml version="1.0" encoding="UTF-8" standalone="no"?>
<!DOCTYPE svg PUBLIC "-//W3C//DTD SVG 1.1//EN" "http://www.w3.org/Graphics/SVG/1.1/DTD/svg11.dtd">
<svg width="100%" height="100%" viewBox="0 0 112 112" version="1.1" xmlns="http://www.w3.org/2000/svg" xmlns:xlink="http://www.w3.org/1999/xlink" xml:space="preserve" xmlns:serif="http://www.serif.com/" style="fill-rule:evenodd;clip-rule:evenodd;stroke-linejoin:round;stroke-miterlimit:2;">
    <g transform="matrix(1,0,0,1,-118.9,0.615)">
        <g transform="matrix(0.1,0,0,-0.1,0,441)">
            <path d="M1713,4204C1536,4157 1426,4053 1349,3859L1329,3807L1352,3774C1365,3755 1387,3738 1402,3735C1417,3731 1432,3720 1435,3709C1445,3680 1500,3620 1517,3620C1530,3620 1531,3630 1525,3675L1519,3730L1569,3730C1633,3730 1670,3716 1670,3692C1670,3677 1665,3674 1644,3678L1617,3683L1622,3620C1626,3565 1630,3554 1658,3529C1695,3496 1727,3493 1773,3516C1813,3537 1820,3548 1818,3585C1815,3634 1839,3690 1861,3690C1904,3690 1973,3666 1996,3644C2024,3615 2040,3614 2073,3640C2112,3671 2160,3836 2160,3939C2160,3994 2145,4082 2130,4121C2124,4135 2095,4160 2062,4180C2007,4212 2001,4213 1885,4216C1807,4217 1747,4213 1713,4204ZM1810,4165C1789,4139 1808,4135 1859,4153C1909,4170 1970,4176 1970,4163C1970,4146 1908,4049 1895,4043C1873,4035 1877,4010 1899,4010C1921,4010 1956,4052 1989,4117C2010,4160 2011,4160 2042,4147C2101,4123 2114,4092 2118,3972C2121,3894 2117,3847 2105,3801C2074,3681 2036,3632 2010,3679C1999,3700 1862,3737 1834,3726C1814,3718 1787,3654 1785,3605C1783,3573 1777,3562 1754,3548C1717,3525 1714,3525 1685,3555C1653,3586 1652,3617 1683,3616C1704,3615 1705,3618 1702,3670C1700,3700 1694,3730 1688,3737C1673,3756 1587,3770 1490,3770C1406,3770 1399,3772 1384,3794C1369,3818 1370,3823 1408,3904C1432,3955 1467,4009 1496,4041C1566,4114 1697,4178 1784,4179C1817,4180 1821,4178 1810,4165Z" style="fill-rule:nonzero;"/>
        </g>
        <g transform="matrix(0.1,0,0,-0.1,0,441)">
            <path d="M1565,4028C1534,4011 1500,3978 1500,3965C1500,3956 1523,3952 1570,3951C1647,3950 1649,3952 1629,4009C1617,4042 1599,4047 1565,4028Z" style="fill-rule:nonzero;"/>
        </g>
        <g transform="matrix(0.1,0,0,-0.1,0,441)">
            <path d="M1890,3972C1890,3968 1899,3947 1910,3925C1921,3903 1930,3874 1930,3859C1930,3828 1898,3784 1870,3775C1845,3767 1844,3740 1869,3740C1894,3740 1937,3775 1956,3812C1974,3848 1968,3902 1940,3948C1922,3977 1890,3992 1890,3972Z" style="fill-rule:nonzero;"/>
        </g>
    </g>
</svg>
