<?xml version="1.0" encoding="UTF-8" standalone="no"?>
<!DOCTYPE svg PUBLIC "-//W3C//DTD SVG 1.1//EN" "http://www.w3.org/Graphics/SVG/1.1/DTD/svg11.dtd">
<svg width="100%" height="100%" viewBox="0 0 96 96" version="1.1" xmlns="http://www.w3.org/2000/svg" xmlns:xlink="http://www.w3.org/1999/xlink" xml:space="preserve" xmlns:serif="http://www.serif.com/" style="fill-rule:evenodd;clip-rule:evenodd;stroke-linejoin:round;stroke-miterlimit:2;">
    <g transform="matrix(1,0,0,1,-1188.68,-8.6)">
        <g transform="matrix(0.1,0,0,-0.1,0,441)">
            <path d="M12336,4254C12327,4246 12320,4228 12320,4215C12320,4201 12313,4190 12300,4187C12282,4182 12280,4172 12277,4059L12274,3935L12272,4063L12270,4190L12201,4190C12162,4190 12129,4186 12126,4181C12123,4176 12129,4138 12140,4096C12165,3995 12177,3803 12161,3730C12146,3659 12074,3510 12055,3510C12037,3510 12026,3469 12035,3441C12041,3420 12046,3420 12371,3420L12700,3420L12700,3465C12700,3497 12696,3510 12686,3510C12667,3510 12617,3598 12591,3677C12565,3754 12563,3914 12586,4035C12594,4079 12604,4132 12607,4153L12613,4190L12542,4190C12457,4190 12461,4197 12457,4040L12454,3935L12452,4063C12450,4179 12448,4190 12431,4190C12417,4190 12414,4196 12417,4214C12421,4231 12415,4242 12399,4254C12370,4274 12356,4274 12336,4254ZM12380,4215C12380,4207 12376,4200 12371,4200C12358,4200 12349,4216 12357,4224C12368,4235 12380,4230 12380,4215ZM12242,4033L12245,3905L12274,3902C12290,3900 12306,3904 12311,3912C12316,3919 12320,3978 12320,4043L12320,4160L12419,4160L12422,4033L12425,3905L12495,3905L12498,4033L12501,4160L12535,4160C12575,4160 12575,4163 12555,4071C12533,3968 12525,3795 12539,3732C12556,3653 12608,3535 12641,3499C12657,3482 12670,3464 12670,3459C12670,3454 12540,3450 12370,3450C12120,3450 12070,3452 12070,3464C12070,3472 12076,3480 12083,3483C12101,3490 12154,3591 12180,3669C12197,3721 12201,3756 12201,3851C12200,3954 12179,4127 12164,4151C12161,4156 12177,4160 12199,4160L12239,4160L12242,4033Z" style="fill-rule:nonzero;"/>
        </g>
        <g transform="matrix(0.1,0,0,-0.1,0,441)">
            <path d="M12345,3810C12341,3804 12342,3785 12345,3768L12352,3737L12312,3743C12265,3749 12239,3731 12259,3706C12267,3696 12283,3694 12312,3698L12353,3703L12348,3626C12343,3547 12352,3523 12380,3540C12391,3547 12394,3567 12391,3625L12388,3702L12432,3698C12472,3695 12475,3697 12475,3720C12475,3743 12472,3745 12431,3742C12387,3738 12387,3738 12393,3768C12401,3808 12364,3841 12345,3810Z" style="fill-rule:nonzero;"/>
        </g>
    </g>
</svg>
