<?xml version="1.0" encoding="UTF-8" standalone="no"?>
<!DOCTYPE svg PUBLIC "-//W3C//DTD SVG 1.1//EN" "http://www.w3.org/Graphics/SVG/1.1/DTD/svg11.dtd">
<svg width="100%" height="100%" viewBox="0 0 112 112" version="1.1" xmlns="http://www.w3.org/2000/svg" xmlns:xlink="http://www.w3.org/1999/xlink" xml:space="preserve" xmlns:serif="http://www.serif.com/" style="fill-rule:evenodd;clip-rule:evenodd;stroke-linejoin:round;stroke-miterlimit:2;">
    <g transform="matrix(1,0,0,1,-1419.26,-0.565)">
        <g transform="matrix(0.1,0,0,-0.1,0,441)">
            <path d="M14703,4299C14686,4294 14662,4277 14651,4261C14639,4245 14619,4230 14606,4226C14593,4223 14575,4209 14566,4195C14557,4181 14543,4170 14535,4170C14511,4170 14490,4140 14490,4104C14490,4071 14489,4070 14450,4070C14401,4070 14374,4037 14385,3993C14395,3953 14409,3940 14441,3940C14468,3940 14470,3937 14470,3901C14470,3871 14476,3857 14495,3842L14520,3822L14495,3716C14481,3658 14456,3582 14440,3547C14422,3510 14409,3464 14408,3435L14405,3385L15085,3385L15083,3437C15081,3470 15070,3512 15051,3552C15035,3587 15011,3661 14997,3718L14972,3822L14996,3845C15012,3861 15020,3881 15020,3905C15020,3937 15022,3940 15049,3940C15095,3940 15109,3949 15116,3986C15126,4038 15100,4070 15050,4070C15013,4070 15011,4072 15004,4104C14997,4142 14978,4164 14943,4174C14930,4178 14920,4188 14920,4196C14920,4205 14902,4219 14880,4227C14858,4236 14840,4249 14840,4256C14840,4290 14758,4316 14703,4299ZM14805,4233C14817,4213 14833,4201 14847,4200C14859,4200 14878,4187 14890,4170C14902,4154 14919,4140 14929,4140C14947,4140 14970,4122 14970,4108C14970,4104 14868,4100 14744,4100C14575,4100 14519,4103 14522,4112C14526,4124 14543,4135 14573,4144C14584,4148 14594,4159 14597,4171C14601,4183 14614,4193 14632,4197C14648,4200 14665,4211 14670,4221C14690,4258 14712,4271 14749,4268C14777,4266 14789,4258 14805,4233ZM14818,4049C14808,4044 14800,4032 14800,4025C14800,4014 14787,4010 14751,4010C14710,4010 14700,4014 14686,4035L14670,4060L14752,4060C14813,4059 14830,4057 14818,4049ZM14584,4034C14593,4031 14600,4018 14600,4005C14600,3980 14579,3967 14555,3976C14537,3983 14535,4026 14553,4033C14559,4036 14566,4039 14567,4039C14568,4040 14575,4037 14584,4034ZM14654,4034C14686,4022 14668,3970 14631,3970C14627,3970 14624,3986 14624,4005C14624,4041 14627,4044 14654,4034ZM14868,4004C14868,3978 14864,3970 14853,3972C14827,3977 14814,4006 14829,4024C14852,4051 14868,4043 14868,4004ZM14948,4009C14952,3979 14926,3963 14904,3981C14887,3995 14886,4012 14902,4028C14921,4047 14945,4037 14948,4009ZM14520,4021C14520,4016 14509,4009 14495,4006C14481,4002 14470,3995 14470,3990C14470,3984 14459,3980 14445,3980C14425,3980 14420,3985 14420,4005C14420,4028 14423,4030 14470,4030C14498,4030 14520,4026 14520,4021ZM15080,4005C15080,3985 15075,3980 15055,3980C15041,3980 15024,3985 15017,3990C15010,3996 14996,4007 14985,4015C14967,4028 14970,4029 15023,4030C15077,4030 15080,4029 15080,4005ZM14550,3950C14566,3934 14583,3930 14636,3930C14693,3930 14703,3933 14707,3950C14711,3965 14721,3970 14745,3970C14769,3970 14779,3965 14783,3950C14787,3933 14797,3930 14854,3930C14907,3930 14925,3934 14942,3950C14976,3981 14990,3975 14990,3930L14990,3890L14500,3890L14500,3930C14500,3976 14517,3983 14550,3950ZM14960,3862C14960,3834 14930,3830 14745,3830C14560,3830 14530,3834 14530,3862C14530,3866 14627,3870 14745,3870C14863,3870 14960,3866 14960,3862ZM14962,3715C14971,3677 14980,3639 14980,3633C14980,3623 14926,3620 14745,3620C14616,3620 14510,3622 14510,3625C14510,3631 14540,3758 14546,3778C14549,3788 14594,3790 14747,3788L14944,3785L14962,3715ZM15008,3555C15015,3541 15020,3527 15020,3525C15020,3522 14896,3520 14745,3520C14594,3520 14470,3522 14470,3525C14470,3527 14475,3541 14482,3555L14493,3580L14997,3580L15008,3555ZM15048,3448L15051,3420L14746,3420C14422,3420 14429,3419 14446,3464C14452,3479 14485,3480 14749,3478L15045,3475L15048,3448Z" style="fill-rule:nonzero;"/>
        </g>
        <g transform="matrix(0.1,0,0,-0.1,0,441)">
            <path d="M14697,4224C14683,4210 14703,4200 14746,4200C14778,4200 14790,4204 14788,4213C14783,4226 14709,4235 14697,4224Z" style="fill-rule:nonzero;"/>
        </g>
        <g transform="matrix(0.1,0,0,-0.1,0,441)">
            <path d="M14627,4164C14608,4144 14631,4140 14751,4140C14851,4140 14881,4143 14878,4153C14873,4166 14640,4177 14627,4164Z" style="fill-rule:nonzero;"/>
        </g>
    </g>
</svg>
