<?xml version="1.0" encoding="UTF-8" standalone="no"?>
<!DOCTYPE svg PUBLIC "-//W3C//DTD SVG 1.1//EN" "http://www.w3.org/Graphics/SVG/1.1/DTD/svg11.dtd">
<svg width="100%" height="100%" viewBox="0 0 112 112" version="1.1" xmlns="http://www.w3.org/2000/svg" xmlns:xlink="http://www.w3.org/1999/xlink" xml:space="preserve" xmlns:serif="http://www.serif.com/" style="fill-rule:evenodd;clip-rule:evenodd;stroke-linejoin:round;stroke-miterlimit:2;">
    <g transform="matrix(1,0,0,1,-878.5,-1.0571)">
        <g transform="matrix(0.1,0,0,-0.1,0,441)">
            <path d="M9180,4200C9171,4194 9169,4179 9173,4146C9177,4121 9176,4098 9171,4096C9166,4093 9118,4104 9064,4120C8948,4155 8940,4156 8940,4132C8940,4120 8970,4093 9023,4057L9106,4001L9052,3893C9007,3803 9000,3780 9005,3750C9012,3709 9051,3670 9085,3670C9098,3670 9112,3666 9115,3660C9128,3639 9162,3652 9203,3694C9226,3717 9275,3761 9313,3789C9371,3835 9380,3839 9380,3821C9380,3780 9352,3732 9287,3662C9240,3610 9220,3579 9211,3546C9190,3463 9168,3470 9469,3470L9738,3470L9744,3495C9754,3536 9732,3770 9710,3849C9682,3947 9657,3994 9601,4050C9555,4096 9466,4140 9420,4140C9407,4140 9395,4152 9386,4175C9367,4219 9339,4221 9308,4180C9282,4145 9270,4143 9244,4171C9218,4200 9196,4210 9180,4200ZM9362,4136C9364,4121 9379,4114 9420,4105C9497,4089 9545,4064 9585,4017C9648,3944 9684,3814 9696,3623L9703,3510L9471,3510C9252,3510 9240,3511 9240,3529C9240,3553 9277,3606 9330,3661C9354,3685 9381,3723 9391,3745C9409,3785 9437,3957 9427,3967C9417,3976 9400,3960 9400,3942C9400,3916 9346,3856 9277,3804C9243,3778 9200,3741 9182,3721L9149,3685L9152,3715C9154,3740 9151,3746 9133,3748C9113,3751 9108,3746 9111,3724C9112,3717 9089,3700 9078,3700C9061,3700 9040,3735 9040,3766C9040,3802 9108,3942 9174,4042C9205,4088 9211,4106 9207,4130C9199,4167 9206,4168 9232,4135C9259,4100 9293,4103 9321,4141C9343,4172 9355,4170 9362,4136ZM9057,4094C9159,4052 9166,4047 9146,4031C9134,4021 9116,4027 9046,4065C8998,4091 8960,4116 8960,4121C8960,4134 8961,4134 9057,4094Z" style="fill-rule:nonzero;"/>
        </g>
        <g transform="matrix(0.1,0,0,-0.1,0,441)">
            <path d="M9184,4019C9170,3991 9170,3986 9183,3973C9196,3960 9200,3961 9219,3981C9230,3994 9240,4014 9240,4027C9240,4062 9204,4057 9184,4019Z" style="fill-rule:nonzero;"/>
        </g>
        <g transform="matrix(0.1,0,0,-0.1,0,441)">
            <path d="M9070,3805C9054,3786 9065,3758 9087,3762C9109,3766 9116,3805 9096,3813C9088,3816 9076,3812 9070,3805Z" style="fill-rule:nonzero;"/>
        </g>
    </g>
</svg>
